<svg width="30" height="30" viewBox="0 0 30 30" fill="none" xmlns="http://www.w3.org/2000/svg">
<path d="M24.9938 5.12125C24.9453 4.41004 24.6285 3.74377 24.1076 3.25717C23.5866 2.77056 22.9004 2.49993 22.1875 2.5H7.8125L7.62 2.50625C6.9088 2.55504 6.24266 2.87208 5.75629 3.39326C5.26991 3.91445 4.9996 4.60088 5 5.31375V24.6862L5.00625 24.8787C5.05473 25.59 5.37146 26.2562 5.8924 26.7428C6.41335 27.2294 7.09964 27.5001 7.8125 27.5H17.2725L15.3975 25.625H7.8125L7.685 25.6162C7.46056 25.5854 7.25487 25.4744 7.10596 25.3037C6.95705 25.1329 6.87501 24.914 6.875 24.6875V5.31375L6.88375 5.18625C6.91456 4.96181 7.0256 4.75611 7.19634 4.60721C7.36707 4.4583 7.58595 4.37626 7.8125 4.37625H22.1875L22.315 4.385C22.5394 4.41581 22.7451 4.52685 22.894 4.69759C23.0429 4.86832 23.125 5.0872 23.125 5.31375V19.7725L24.5738 18.3237C24.7063 18.1912 24.8488 18.0737 24.9988 17.9737V5.3125L24.9938 5.12V5.12125ZM20.36 27.4987C20.3284 27.5005 20.2966 27.5005 20.265 27.4987C20.0327 27.4871 19.8131 27.3895 19.6488 27.225L16.5238 24.0975C16.348 23.9215 16.2495 23.6828 16.2497 23.4341C16.2499 23.1854 16.349 22.947 16.525 22.7712C16.701 22.5955 16.9397 22.497 17.1884 22.4972C17.4371 22.4974 17.6755 22.5965 17.8513 22.7725L20.3125 25.2362L25.9 19.6487C25.9865 19.5592 26.09 19.4879 26.2044 19.4388C26.3188 19.3897 26.4418 19.3639 26.5663 19.3629C26.6908 19.3619 26.8142 19.3857 26.9294 19.4328C27.0446 19.48 27.1493 19.5497 27.2372 19.6378C27.3252 19.7258 27.3948 19.8305 27.4419 19.9458C27.489 20.061 27.5126 20.1845 27.5115 20.3089C27.5103 20.4334 27.4844 20.5564 27.4352 20.6708C27.3861 20.7851 27.3146 20.8886 27.225 20.975L20.975 27.225C20.811 27.3892 20.5918 27.4868 20.36 27.4987ZM17.3 20.625C17.2242 20.622 17.1483 20.622 17.0725 20.625H14.0563C13.8076 20.625 13.5692 20.5262 13.3933 20.3504C13.2175 20.1746 13.1188 19.9361 13.1188 19.6875C13.1188 19.4389 13.2175 19.2004 13.3933 19.0246C13.5692 18.8488 13.8076 18.75 14.0563 18.75H20.3113C20.5599 18.75 20.7983 18.8488 20.9742 19.0246C21.15 19.2004 21.2488 19.4389 21.2488 19.6875C21.2488 19.9361 21.15 20.1746 20.9742 20.3504C20.7983 20.5262 20.5599 20.625 20.3113 20.625H17.3ZM11.25 9.69C11.25 10.0215 11.1183 10.3395 10.8839 10.5739C10.6495 10.8083 10.3315 10.94 10 10.94C9.66848 10.94 9.35054 10.8083 9.11612 10.5739C8.8817 10.3395 8.75 10.0215 8.75 9.69C8.75 9.35848 8.8817 9.04054 9.11612 8.80612C9.35054 8.5717 9.66848 8.44 10 8.44C10.3315 8.44 10.6495 8.5717 10.8839 8.80612C11.1183 9.04054 11.25 9.35848 11.25 9.69ZM13.12 9.6875C13.12 9.43886 13.2188 9.2004 13.3946 9.02459C13.5704 8.84877 13.8089 8.75 14.0575 8.75H20.3125C20.5611 8.75 20.7996 8.84877 20.9754 9.02459C21.1512 9.2004 21.25 9.43886 21.25 9.6875C21.25 9.93614 21.1512 10.1746 20.9754 10.3504C20.7996 10.5262 20.5611 10.625 20.3125 10.625H14.0575C13.8089 10.625 13.5704 10.5262 13.3946 10.3504C13.2188 10.1746 13.12 9.93614 13.12 9.6875ZM14.0575 13.75C13.8089 13.75 13.5704 13.8488 13.3946 14.0246C13.2188 14.2004 13.12 14.4389 13.12 14.6875C13.12 14.9361 13.2188 15.1746 13.3946 15.3504C13.5704 15.5262 13.8089 15.625 14.0575 15.625H20.3125C20.4356 15.625 20.5575 15.6007 20.6713 15.5536C20.785 15.5065 20.8884 15.4375 20.9754 15.3504C21.0625 15.2634 21.1315 15.16 21.1786 15.0463C21.2258 14.9325 21.25 14.8106 21.25 14.6875C21.25 14.5644 21.2258 14.4425 21.1786 14.3287C21.1315 14.215 21.0625 14.1116 20.9754 14.0246C20.8884 13.9375 20.785 13.8685 20.6713 13.8214C20.5575 13.7742 20.4356 13.75 20.3125 13.75H14.0575ZM10 15.9375C10.3315 15.9375 10.6495 15.8058 10.8839 15.5714C11.1183 15.337 11.25 15.019 11.25 14.6875C11.25 14.356 11.1183 14.038 10.8839 13.8036C10.6495 13.5692 10.3315 13.4375 10 13.4375C9.66848 13.4375 9.35054 13.5692 9.11612 13.8036C8.8817 14.038 8.75 14.356 8.75 14.6875C8.75 15.019 8.8817 15.337 9.11612 15.5714C9.35054 15.8058 9.66848 15.9375 10 15.9375ZM11.25 19.685C11.25 20.0165 11.1183 20.3345 10.8839 20.5689C10.6495 20.8033 10.3315 20.935 10 20.935C9.66848 20.935 9.35054 20.8033 9.11612 20.5689C8.8817 20.3345 8.75 20.0165 8.75 19.685C8.75 19.3535 8.8817 19.0355 9.11612 18.8011C9.35054 18.5667 9.66848 18.435 10 18.435C10.3315 18.435 10.6495 18.5667 10.8839 18.8011C11.1183 19.0355 11.25 19.3535 11.25 19.685Z" fill="white"/>
</svg>
